<svg version="1.1" id="Layer_1" xmlns="http://www.w3.org/2000/svg" xmlns:xlink="http://www.w3.org/1999/xlink" x="0px" y="0px"
	 width="100%" viewBox="0 0 500 500" enable-background="new 0 0 500 500" xml:space="preserve">
<path fill="#FFFFFF" opacity="1.000000" stroke="none" 
	d="
M322.000000,501.000000 
	C214.666687,501.000000 107.833382,501.000000 1.000057,501.000000 
	C1.000038,334.333405 1.000038,167.666794 1.000019,1.000147 
	C167.666565,1.000098 334.333130,1.000098 500.999756,1.000049 
	C500.999847,167.666519 500.999847,334.333038 500.999939,500.999786 
	C441.500000,501.000000 382.000000,501.000000 322.000000,501.000000 
M306.500122,106.222343 
	C226.044708,106.222343 145.589294,106.222343 64.903381,106.222343 
	C64.903381,177.926132 64.903381,249.280304 64.903381,320.566467 
	C189.214706,320.566467 313.122101,320.566467 437.222961,320.566467 
	C437.222961,249.081223 437.222961,177.850128 437.222961,106.222351 
	C393.749664,106.222351 350.624939,106.222351 306.500122,106.222343 
M223.500031,339.884460 
	C170.600281,339.884460 117.700539,339.884460 64.796333,339.884460 
	C64.796333,358.877716 64.796333,377.144165 64.796333,395.598755 
	C189.026855,395.598755 312.954468,395.598755 437.203308,395.598755 
	C437.203308,377.002960 437.203308,358.602875 437.203308,339.884460 
	C366.127167,339.884460 295.313629,339.884460 223.500031,339.884460 
z"/>
<path fill="#030303" opacity="1.000000" stroke="none" 
	d="
M307.000153,106.222351 
	C350.624939,106.222351 393.749664,106.222351 437.222961,106.222351 
	C437.222961,177.850128 437.222961,249.081223 437.222961,320.566467 
	C313.122101,320.566467 189.214706,320.566467 64.903381,320.566467 
	C64.903381,249.280304 64.903381,177.926132 64.903381,106.222343 
	C145.589294,106.222343 226.044708,106.222343 307.000153,106.222351 
M310.436157,248.355072 
	C308.786865,244.943451 307.137573,241.531815 305.389526,237.915909 
	C308.435425,236.265640 310.075836,232.796646 309.058319,228.163055 
	C308.005066,223.366714 304.456665,221.229874 300.072571,220.943710 
	C294.181458,220.559158 288.246368,220.848389 282.203552,220.848389 
	C282.203552,233.460480 282.203552,246.128265 282.203552,259.011658 
	C286.816223,259.011658 291.113220,259.015015 295.410217,259.009186 
	C296.406158,259.007812 297.405640,259.023499 298.397339,258.949066 
	C305.111511,258.445099 308.805237,255.399628 310.436157,248.355072 
M109.821045,221.010513 
	C109.207138,221.259155 108.573334,221.467896 107.982300,221.762436 
	C98.851341,226.312698 94.771767,236.214630 97.923050,246.150879 
	C101.015068,255.900269 109.800995,260.867920 120.765640,259.066345 
	C130.076065,257.536560 136.210159,249.638077 136.090775,239.333084 
	C135.932281,225.650208 124.748749,217.522293 109.821045,221.010513 
M315.151672,233.919510 
	C314.932922,235.399673 314.628906,236.872986 314.509064,238.361130 
	C313.650269,249.022919 320.559082,257.759186 330.927979,259.172852 
	C342.417450,260.739288 351.123871,254.699783 353.255493,243.684525 
	C355.279449,233.225632 349.950439,223.840927 340.302948,220.874390 
	C329.576477,217.576096 319.927094,222.334625 315.151672,233.919510 
M396.132996,242.712936 
	C396.900635,232.916092 393.480133,225.771561 386.273560,222.119095 
	C375.907684,216.865463 363.204254,221.138855 358.882690,231.333344 
	C354.107025,242.598953 359.413483,255.095459 370.436005,258.540924 
	C382.448853,262.295959 393.165314,256.006195 396.132996,242.712936 
M172.047607,220.313232 
	C170.134125,220.313232 168.220657,220.313232 166.068970,220.313232 
	C166.068970,228.717026 166.196136,236.365723 166.028839,244.007965 
	C165.894455,250.146591 162.269104,253.441055 156.583603,253.031479 
	C151.712082,252.680542 148.945007,249.589996 148.835068,243.829330 
	C148.687073,236.074478 148.798340,228.314697 148.798340,220.536392 
	C145.955307,220.536392 143.867447,220.536392 141.887589,220.536392 
	C141.887589,229.742188 141.279037,238.723358 142.076248,247.577972 
	C142.737991,254.928009 149.119217,259.284668 157.048538,259.466583 
	C164.740051,259.642975 172.049652,255.213287 172.692947,248.330933 
	C173.550079,239.160980 172.881912,229.848419 172.047607,220.313232 
M211.500839,210.468628 
	C220.302261,209.610382 226.211136,205.797501 226.784576,198.871719 
	C227.531937,189.845642 226.967438,180.710953 226.967438,171.544464 
	C224.770203,171.544464 222.674103,171.544464 220.279053,171.544464 
	C220.200989,172.745285 220.087906,173.702682 220.084625,174.660446 
	C220.060730,181.652527 220.220032,188.649826 219.997742,195.635178 
	C219.828232,200.962402 216.461899,204.048126 211.457077,204.059387 
	C206.399353,204.070770 203.230484,201.051407 202.867065,195.710098 
	C202.709137,193.389008 202.790588,191.050705 202.787231,188.720200 
	C202.778946,182.980270 202.784500,177.240326 202.784500,171.611710 
	C199.873322,171.611710 197.783890,171.611710 195.258347,171.611710 
	C195.258347,179.225540 195.139572,186.517181 195.287018,193.803421 
	C195.492798,203.972687 200.464874,209.242188 211.500839,210.468628 
M201.299179,221.939697 
	C194.642410,221.181549 187.985641,220.423386 180.894150,219.615723 
	C180.894150,227.173233 180.894150,233.477722 180.894150,239.782211 
	C180.894150,246.059723 180.894150,252.337219 180.894150,258.808838 
	C183.423401,258.808838 185.503036,258.808838 188.149963,258.808838 
	C188.149963,253.852768 188.149963,248.987762 188.149963,244.122742 
	C188.591309,243.791245 189.032639,243.459763 189.473984,243.128265 
	C191.255096,244.425842 193.307327,245.479828 194.747940,247.083313 
	C196.505707,249.039795 198.061264,251.315720 199.151611,253.705627 
	C201.485565,258.821411 205.244537,259.978119 210.714081,258.537628 
	C206.966125,253.006943 203.390228,247.730148 199.808548,242.444809 
	C209.401855,237.027740 210.295670,228.222092 201.299179,221.939697 
M257.566986,198.914719 
	C256.316559,197.158401 255.066162,195.402069 253.813629,193.642776 
	C260.451813,189.490479 262.452759,185.750717 261.175323,179.959366 
	C260.028046,174.758057 256.102966,171.927597 248.628448,171.437683 
	C244.193314,171.146988 239.723572,171.384460 235.248962,171.384460 
	C235.248962,184.553177 235.248962,197.265564 235.248962,209.720886 
	C237.704636,209.720886 239.797684,209.720886 242.229767,209.720886 
	C242.229767,204.672455 242.229767,199.914764 242.229767,193.301620 
	C245.253830,195.528870 247.422806,196.679199 248.976440,198.388763 
	C250.744308,200.334076 252.228027,202.652054 253.364639,205.032761 
	C255.713608,209.952682 259.463257,210.913269 264.670776,209.528305 
	C262.362579,206.081039 260.164764,202.798615 257.566986,198.914719 
M430.909912,224.239426 
	C431.680817,223.102997 432.451752,221.966568 433.317474,220.690338 
	C427.961395,219.360840 424.487274,220.915878 421.799438,225.117386 
	C419.751160,228.319153 417.228424,231.251175 414.663757,234.073227 
	C413.542145,235.307434 411.788940,235.967667 409.109802,237.650101 
	C409.109802,230.799820 409.109802,225.603180 409.109802,220.643524 
	C406.364105,220.643524 404.302917,220.643524 402.331299,220.643524 
	C402.331299,233.605728 402.331299,246.175797 402.331299,258.782654 
	C404.722046,258.782654 406.811798,258.782654 409.355164,258.782654 
	C409.355164,253.170456 409.355164,247.771835 409.355164,240.835541 
	C412.133545,242.555038 414.241913,243.325821 415.576019,244.798157 
	C418.245087,247.743729 420.795624,250.890198 422.835327,254.289612 
	C425.560638,258.831696 429.193329,259.910950 434.578796,258.488403 
	C429.367981,251.519714 424.389679,244.861984 419.467041,238.278687 
	C423.091736,233.830139 426.765167,229.321732 430.909912,224.239426 
M310.928040,184.372879 
	C307.618378,192.784286 304.308746,201.195694 301.008484,209.583252 
	C306.394501,211.133423 309.541199,209.564835 310.396820,204.302689 
	C310.898865,201.215042 312.797546,200.350464 315.713013,200.593292 
	C318.194336,200.799957 320.736694,200.916794 323.194183,200.609924 
	C326.592468,200.185577 328.486969,201.285416 329.161713,204.732300 
	C330.173218,209.899597 333.300690,211.267899 338.332153,209.310959 
	C333.870880,197.945374 329.371674,186.708939 325.081940,175.393082 
	C324.030945,172.620728 322.933350,171.148346 319.526611,171.130890 
	C316.158417,171.113647 315.288513,172.744217 314.438751,175.298981 
	C313.497711,178.128342 312.257782,180.858292 310.928040,184.372879 
M254.741943,259.026855 
	C261.687103,259.026855 268.632263,259.026855 275.914581,259.026855 
	C275.796509,256.738556 275.708435,255.031937 275.596130,252.855453 
	C269.677948,252.855453 264.270996,252.855453 259.149902,252.855453 
	C259.149902,249.100739 259.149902,245.853592 259.149902,242.247131 
	C263.617615,242.247131 267.719086,242.247131 271.836609,242.247131 
	C271.836609,240.289703 271.836609,238.710800 271.836609,236.772278 
	C267.478638,236.772278 263.374268,236.772278 259.034271,236.772278 
	C259.034271,233.157883 259.034271,229.917099 259.034271,226.196411 
	C264.607086,226.196411 270.022217,226.196411 275.514465,226.196411 
	C275.514465,224.018478 275.514465,222.325958 275.514465,220.651062 
	C267.264801,220.651062 259.384491,220.651062 251.220398,220.651062 
	C251.220398,232.845444 251.166275,244.649628 251.331238,256.450745 
	C251.343414,257.320770 252.934647,258.168732 254.741943,259.026855 
M240.227051,257.945984 
	C242.163239,256.562683 244.099426,255.179367 246.132919,253.726517 
	C244.736176,251.916458 243.748062,250.635941 242.920013,249.562866 
	C241.606171,250.163528 241.139664,250.324295 240.726532,250.573517 
	C234.496979,254.331650 228.371048,254.039261 224.317902,249.777237 
	C220.031296,245.269730 219.662735,235.860626 223.573090,230.763809 
	C227.213211,226.019257 233.549606,224.683899 239.731171,228.060638 
	C243.796692,230.281464 244.482147,227.465729 246.671692,224.145432 
	C242.574280,222.663391 239.047440,220.687134 235.320877,220.180771 
	C226.663986,219.004456 219.280975,222.974014 215.625488,229.930420 
	C211.815765,237.180328 212.653946,247.467148 217.959991,253.405914 
	C223.890488,260.043579 231.401031,260.627502 240.227051,257.945984 
M76.492783,259.050323 
	C79.140182,259.024872 81.852394,259.360138 84.421432,258.898529 
	C89.683495,257.953064 93.323982,253.482513 93.815971,248.003250 
	C94.263611,243.017807 91.979904,239.614029 86.577797,237.398773 
	C84.121056,236.391327 81.380219,235.884750 79.189255,234.489746 
	C77.770477,233.586441 76.021667,231.146225 76.377380,230.004059 
	C76.881691,228.384750 79.007820,226.786392 80.780075,226.194138 
	C82.288628,225.690033 84.550888,226.154144 86.000328,227.005768 
	C90.075478,229.400146 91.996178,228.152252 92.815430,223.725006 
	C87.179436,219.645584 81.288078,218.508514 75.010674,221.728897 
	C70.936012,223.819244 68.967598,227.408157 69.217484,231.967789 
	C69.458344,236.362885 71.756058,239.438782 75.947701,240.963440 
	C77.972504,241.699951 80.033386,242.336777 82.072601,243.034317 
	C84.918289,244.007782 87.463898,245.404922 86.854492,248.972794 
	C86.221268,252.680191 83.326904,253.588654 80.096222,253.314209 
	C78.332123,253.164337 76.298897,252.796646 74.949928,251.780167 
	C70.884193,248.716599 69.155579,250.565887 67.767670,255.118286 
	C70.432144,256.394806 73.076523,257.661682 76.492783,259.050323 
M167.235687,177.091263 
	C164.347290,185.075012 166.490738,189.747986 174.426956,192.655457 
	C175.978180,193.223770 177.631866,193.520645 179.165543,194.126785 
	C181.932648,195.220398 184.330734,196.699875 183.460434,200.324326 
	C182.629715,203.783859 179.962784,204.569489 176.949554,204.301773 
	C175.193604,204.145767 173.185669,203.782654 171.826019,202.784271 
	C167.864685,199.875381 165.936081,201.317001 164.705002,205.657303 
	C169.674393,210.123474 175.470215,211.294769 181.802979,209.804916 
	C186.755295,208.639816 190.110153,204.183182 190.511459,198.867294 
	C190.894516,193.792923 188.748306,190.619278 183.221527,188.324554 
	C180.928757,187.372574 178.292664,187.006088 176.298111,185.656143 
	C174.789261,184.634933 172.838699,182.017410 173.250183,180.928894 
	C173.885361,179.248596 176.211426,177.740326 178.124130,177.159409 
	C179.626846,176.703033 181.822983,177.356812 183.302521,178.218750 
	C187.600372,180.722549 188.768356,178.497589 189.456543,174.930771 
	C181.448715,168.985794 173.200867,169.643784 167.235687,177.091263 
M288.051971,193.010880 
	C292.226807,185.979492 296.401642,178.948105 300.649292,171.794098 
	C294.929230,170.197968 291.943024,172.054871 289.949493,176.611557 
	C288.101288,180.836014 285.639587,184.792068 283.265839,189.205017 
	C280.858368,184.856262 278.522125,180.676437 276.224213,176.475616 
	C273.040253,170.655090 273.004089,170.625839 265.960175,171.906006 
	C271.793304,184.088257 283.478882,194.100464 279.009155,209.750793 
	C282.153595,209.750793 284.383881,209.750793 286.501923,209.750793 
	C286.908417,204.228912 287.294434,198.984924 288.051971,193.010880 
z"/>
<path fill="#040404" opacity="1.000000" stroke="none" 
	d="
M224.000046,339.884460 
	C295.313629,339.884460 366.127167,339.884460 437.203308,339.884460 
	C437.203308,358.602875 437.203308,377.002960 437.203308,395.598755 
	C312.954468,395.598755 189.026855,395.598755 64.796333,395.598755 
	C64.796333,377.144165 64.796333,358.877716 64.796333,339.884460 
	C117.700539,339.884460 170.600281,339.884460 224.000046,339.884460 
M275.172791,367.378082 
	C276.905914,362.125092 274.588531,360.599915 266.699219,362.017853 
	C266.699219,366.203339 266.699219,370.437805 266.699219,375.907623 
	C270.124084,374.858734 273.147736,374.125916 275.923187,372.852203 
	C276.293884,372.682068 275.407928,369.773743 275.172791,367.378082 
M207.395157,361.487518 
	C206.984833,362.016876 206.128815,362.666534 206.234116,363.056732 
	C207.137512,366.404205 208.145859,369.728851 209.290176,373.001801 
	C209.565521,373.789307 210.464233,374.358917 211.076294,375.028717 
	C211.748367,374.247864 212.642731,373.566772 213.047043,372.665771 
	C213.938339,370.679596 214.582520,368.582550 215.527969,365.978729 
	C216.475067,368.804657 217.114731,371.032135 217.993027,373.161194 
	C218.300827,373.907318 219.195236,374.411469 219.821762,375.026154 
	C220.438171,374.371521 221.363022,373.818726 221.618484,373.044922 
	C222.833679,369.363922 223.866714,365.622772 224.964600,361.903046 
	C224.418289,361.652191 223.871979,361.401337 223.325668,361.150513 
	C222.068069,363.958344 220.810455,366.766205 219.538559,369.605957 
	C218.402618,366.816956 217.274612,364.047394 216.132370,361.242889 
	C215.237778,361.681763 214.771957,361.753662 214.676071,361.981354 
	C213.597595,364.542511 212.575989,367.127625 211.529770,369.706238 
	C210.382568,367.044586 209.235367,364.382965 207.395157,361.487518 
M385.888214,361.606018 
	C384.279694,361.606018 382.671143,361.606018 381.111847,361.606018 
	C379.848419,370.109192 380.298798,373.658325 382.875580,374.900269 
	C383.161774,373.238739 383.439545,371.625916 383.771698,369.697540 
	C386.074005,371.935303 387.952942,373.761566 389.831909,375.587830 
	C390.178314,375.240967 390.524719,374.894104 390.871155,374.547272 
	C389.844910,372.904480 388.818665,371.261688 387.775085,369.591156 
	C390.063202,366.609894 392.052307,363.649811 385.888214,361.606018 
M168.606949,364.220764 
	C168.241287,363.262054 167.875610,362.303375 167.509949,361.344666 
	C167.080704,361.436737 166.651443,361.528809 166.222183,361.620880 
	C166.108444,364.131042 165.994690,366.641205 165.856842,369.683563 
	C163.002136,366.506897 160.553528,363.782135 157.585007,360.478821 
	C157.585007,366.317657 157.585007,370.679535 157.585007,375.041412 
	C158.064758,375.055267 158.544510,375.069122 159.024246,375.082977 
	C159.239853,372.686798 159.455460,370.290649 159.746979,367.050751 
	C162.613510,370.264618 164.956512,372.891510 167.299515,375.518372 
	C167.730713,375.278595 168.161926,375.038818 168.593124,374.799042 
	C168.593124,371.554321 168.593124,368.309601 168.606949,364.220764 
M121.582176,375.024353 
	C121.285141,373.158905 120.988106,371.293457 120.844925,370.394226 
	C121.176796,367.550659 122.280975,364.156342 121.499191,363.644928 
	C119.199799,362.140656 116.152016,361.780365 113.441681,360.985260 
	C113.441681,366.498444 113.441681,370.760406 113.441681,375.022369 
	C113.884888,375.090912 114.328087,375.159454 114.771294,375.227966 
	C115.251747,373.498596 115.732193,371.769226 116.352943,369.534851 
	C118.153831,371.697205 119.490921,373.302673 121.582176,375.024353 
M333.893982,370.180908 
	C335.603546,371.974945 337.313110,373.769012 339.022675,375.563049 
	C339.380341,375.222839 339.738037,374.882660 340.095703,374.542450 
	C339.057800,372.894684 338.019897,371.246918 336.981995,369.599152 
	C338.212524,367.564972 339.301697,364.183197 338.512970,363.666107 
	C336.205688,362.153656 333.149902,361.783081 330.409607,360.971619 
	C330.409607,366.456848 330.409607,370.735260 330.409607,375.013641 
	C330.872620,375.084534 331.335663,375.155426 331.798676,375.226318 
	C332.229614,373.556885 332.660522,371.887482 333.893982,370.180908 
M139.952393,364.704315 
	C138.245468,370.114258 139.793335,373.987213 144.070251,375.007751 
	C148.188736,375.990509 152.337082,373.790497 152.505905,369.700317 
	C152.604431,367.313263 151.336304,364.070557 149.545090,362.584045 
	C146.537857,360.088470 143.042831,361.096191 139.952393,364.704315 
M87.986610,374.852173 
	C88.380882,373.476227 88.775154,372.100281 89.248215,370.449341 
	C92.778770,370.321136 96.504372,369.520477 95.316017,364.912354 
	C94.034180,359.941772 89.705620,361.700989 85.290085,361.534882 
	C85.942169,366.350372 86.530312,370.693726 87.986610,374.852173 
M370.011047,374.927063 
	C368.718781,370.850159 367.506622,366.742737 365.985931,362.752869 
	C365.860931,362.424927 362.790863,362.498779 362.527100,363.060760 
	C360.758881,366.828430 359.380341,370.778992 357.875427,374.670258 
	C358.065399,375.241425 358.255402,375.812622 358.445374,376.383820 
	C362.113007,370.794281 365.714172,370.240601 370.011047,374.927063 
M403.372070,372.845520 
	C404.243530,373.652954 405.114990,374.460388 405.986450,375.267822 
	C405.307312,370.728699 403.878235,366.896759 402.258759,363.147064 
	C401.174500,360.636597 399.501373,360.674377 398.436188,363.048492 
	C396.734314,366.841644 395.396545,370.798187 393.986633,374.472473 
	C397.252167,373.641724 400.062775,372.926727 403.372070,372.845520 
M180.631195,363.126465 
	C179.046783,360.494751 177.607971,360.842407 176.526657,363.450562 
	C174.996964,367.140137 173.607925,370.888031 171.856537,375.387482 
	C174.752106,373.958160 176.808762,372.171967 178.889633,372.143341 
	C180.781982,372.117279 182.700638,374.001312 185.396439,375.474304 
	C183.624100,370.867676 182.265915,367.337463 180.631195,363.126465 
M237.101898,362.407288 
	C237.101898,366.590851 237.101898,370.774384 237.101898,374.957947 
	C237.690048,375.065430 238.278198,375.172943 238.866348,375.280457 
	C239.414291,373.348572 239.962234,371.416687 240.543503,369.367371 
	C242.809372,371.502625 244.980072,373.548187 247.150757,375.593750 
	C247.501007,375.235809 247.851257,374.877899 248.201508,374.519958 
	C246.649551,372.263672 245.097580,370.007355 243.533585,367.733582 
	C245.010010,365.745361 246.396225,363.878662 247.782440,362.011932 
	C247.399765,361.667969 247.017105,361.324036 246.634430,360.980103 
	C244.547165,362.958862 242.459885,364.937592 241.136780,366.191895 
	C239.827438,364.574921 238.661057,363.134491 237.101898,362.407288 
M325.100311,366.598511 
	C325.100311,364.912476 325.100311,363.226440 325.100311,361.540375 
	C324.619110,361.454712 324.137878,361.369019 323.656677,361.283325 
	C323.232574,362.128021 322.537872,362.942932 322.440979,363.823608 
	C322.242859,365.624268 322.706421,367.552063 322.247894,369.252289 
	C321.889282,370.581818 320.551178,371.647217 319.648285,372.829956 
	C318.651611,371.572693 317.208496,370.451019 316.774689,369.022797 
	C316.267639,367.353394 316.798157,365.396027 316.563538,363.604858 
	C316.452332,362.755676 315.609161,362.002350 315.097565,361.205597 
	C314.451996,361.408478 313.806427,361.611359 313.160889,361.814209 
	C314.082214,365.902771 314.671844,370.120636 316.177124,373.981506 
	C316.518677,374.857513 320.962982,375.425629 321.890869,374.501282 
	C323.604126,372.794586 324.112549,369.878448 325.100311,366.598511 
M102.617378,361.452759 
	C101.688599,362.224762 100.024445,362.938568 99.957909,363.778870 
	C99.664368,367.486023 99.831062,371.229614 99.831062,374.532104 
	C103.101013,374.532104 105.716057,374.532104 108.331100,374.532104 
	C108.347771,374.157257 108.364433,373.782379 108.381104,373.407532 
	C106.439781,373.135193 104.498459,372.862854 102.557137,372.590546 
	C102.354004,372.136200 102.150864,371.681854 101.947731,371.227509 
	C103.620811,370.229248 105.293892,369.231018 107.375969,367.988739 
	C106.467041,367.619934 105.780289,367.438721 105.199982,367.083588 
	C104.275749,366.517975 103.422432,365.836487 102.539116,365.204010 
	C103.422081,364.738861 104.268227,364.171570 105.198044,363.836426 
	C106.195770,363.476776 107.272163,363.335388 108.314224,363.098785 
	C108.263496,362.656921 108.212769,362.215057 108.162041,361.773193 
	C106.611168,361.667175 105.060287,361.561188 102.617378,361.452759 
M303.706696,375.057343 
	C305.542908,374.305878 308.253662,374.073242 309.061371,372.711700 
	C312.269562,367.303467 304.610809,368.059479 303.641479,364.285095 
	C305.677551,364.054352 307.376740,363.861755 309.805725,363.586456 
	C306.735809,360.596161 303.855988,360.428772 302.043549,363.013428 
	C297.949921,368.851135 306.016144,368.207458 307.434326,372.196472 
	C305.033997,372.196472 303.074463,372.196472 299.750366,372.196472 
	C301.445007,373.650970 302.169983,374.273224 303.706696,375.057343 
M133.762756,361.912964 
	C131.586517,362.481628 128.141464,362.400360 127.458374,363.733887 
	C124.804733,368.914368 131.349350,368.453827 133.744034,372.212128 
	C130.846817,372.342346 128.805954,372.434052 126.219269,372.550293 
	C128.561432,375.823914 131.603790,376.148682 133.617218,374.187164 
	C139.467834,368.487366 130.979156,367.866333 129.594330,365.074860 
	C131.465805,363.988220 132.982635,363.107513 133.762756,361.912964 
M289.788391,365.602112 
	C290.358856,364.341095 290.929321,363.080109 291.499786,361.819092 
	C291.107513,361.555878 290.715210,361.292664 290.322906,361.029449 
	C288.809448,362.910278 287.295990,364.791107 285.791595,366.662079 
	C284.281647,364.779480 282.771698,362.896881 281.261749,361.014282 
	C280.963043,361.311798 280.664337,361.609314 280.365662,361.906830 
	C282.190552,366.361908 284.015442,370.817017 285.966583,375.580261 
	C287.284424,371.893372 288.307922,369.029938 289.788391,365.602112 
M347.976379,371.786682 
	C348.373871,372.860992 348.771332,373.935272 349.168823,375.009583 
	C349.688477,374.691376 350.536407,374.477966 350.676636,374.038666 
	C351.977753,369.962799 353.156982,365.848053 354.371552,361.744568 
	C354.192535,361.530609 354.013550,361.316620 353.834534,361.102661 
	C352.298859,362.982819 350.763214,364.862946 349.301758,366.652252 
	C347.805389,364.778503 346.322418,362.921509 344.839447,361.064514 
	C344.446625,361.354919 344.053772,361.645355 343.660950,361.935791 
	C345.094635,364.945343 346.528351,367.954895 347.976379,371.786682 
M191.823853,367.646759 
	C191.594391,365.554779 191.364944,363.462799 191.135483,361.370789 
	C190.539047,361.448029 189.942596,361.525269 189.346161,361.602509 
	C189.346161,365.945953 189.346161,370.289429 189.346161,375.123962 
	C191.950562,374.983551 194.490311,374.846619 197.030060,374.709656 
	C197.047836,374.278107 197.065598,373.846527 197.083359,373.414978 
	C195.451431,373.121429 193.819489,372.827881 191.824799,372.469086 
	C191.824799,371.131012 191.824799,369.838104 191.823853,367.646759 
M231.190857,361.794861 
	C230.481812,362.129028 229.169128,362.441406 229.156143,362.800751 
	C229.010025,366.841095 229.063705,370.888702 229.063705,375.182220 
	C232.212662,373.643585 232.212662,373.643585 231.190857,361.794861 
M413.246643,374.985504 
	C416.678345,372.210968 417.450500,366.436523 414.840576,361.216614 
	C411.888519,365.359222 416.811768,372.215149 408.385101,374.581665 
	C410.817078,374.895844 411.610504,374.998352 413.246643,374.985504 
M254.405518,374.952301 
	C254.687012,370.512726 254.968506,366.073151 255.249985,361.633606 
	C254.336517,361.636261 253.423050,361.638947 252.509598,361.641602 
	C252.821091,366.074219 253.132584,370.506836 254.405518,374.952301 
z"/>
<path fill="#F6F6F6" opacity="1.000000" stroke="none" 
	d="
M310.403442,248.732513 
	C308.805237,255.399628 305.111511,258.445099 298.397339,258.949066 
	C297.405640,259.023499 296.406158,259.007812 295.410217,259.009186 
	C291.113220,259.015015 286.816223,259.011658 282.203552,259.011658 
	C282.203552,246.128265 282.203552,233.460480 282.203552,220.848389 
	C288.246368,220.848389 294.181458,220.559158 300.072571,220.943710 
	C304.456665,221.229874 308.005066,223.366714 309.058319,228.163055 
	C310.075836,232.796646 308.435425,236.265640 305.389526,237.915909 
	C307.137573,241.531815 308.786865,244.943451 310.403442,248.732513 
M303.065247,249.206467 
	C303.042419,242.501801 298.921631,240.576569 289.332336,242.734055 
	C289.332336,246.187637 289.332336,249.617874 289.332336,253.398987 
	C294.127686,252.485931 299.413574,255.321548 303.065247,249.206467 
M294.301086,226.001312 
	C292.689270,226.001312 291.077454,226.001312 289.050751,226.001312 
	C289.050751,228.146210 289.050751,229.928574 289.050751,231.710938 
	C289.050751,233.457474 289.050751,235.204025 289.050751,236.916153 
	C299.072937,237.311600 301.688904,236.347488 302.044952,232.257828 
	C302.480072,227.259338 299.342072,226.047348 294.301086,226.001312 
z"/>
<path fill="#F4F4F4" opacity="1.000000" stroke="none" 
	d="
M110.217529,220.913864 
	C124.748749,217.522293 135.932281,225.650208 136.090775,239.333084 
	C136.210159,249.638077 130.076065,257.536560 120.765640,259.066345 
	C109.800995,260.867920 101.015068,255.900269 97.923050,246.150879 
	C94.771767,236.214630 98.851341,226.312698 107.982300,221.762436 
	C108.573334,221.467896 109.207138,221.259155 110.217529,220.913864 
M117.296654,226.152283 
	C116.144638,226.270401 114.963409,226.264175 113.845383,226.526932 
	C106.923744,228.153702 103.596962,233.983337 104.730492,242.393005 
	C105.690369,249.514282 110.169884,253.358124 117.232079,253.120529 
	C123.777618,252.900345 127.715683,248.911957 128.582230,241.625351 
	C129.555771,233.439102 126.003197,228.229446 117.296654,226.152283 
z"/>
<path fill="#F4F4F4" opacity="1.000000" stroke="none" 
	d="
M315.267090,233.541626 
	C319.927094,222.334625 329.576477,217.576096 340.302948,220.874390 
	C349.950439,223.840927 355.279449,233.225632 353.255493,243.684525 
	C351.123871,254.699783 342.417450,260.739288 330.927979,259.172852 
	C320.559082,257.759186 313.650269,249.022919 314.509064,238.361130 
	C314.628906,236.872986 314.932922,235.399673 315.267090,233.541626 
M322.147430,242.893234 
	C324.629059,250.980225 329.337402,254.245285 336.679291,252.970581 
	C342.656921,251.932724 346.134583,247.030731 346.112274,239.674164 
	C346.088776,231.919037 342.362091,227.164215 335.609650,226.273956 
	C327.023651,225.141983 321.826904,231.194717 322.147430,242.893234 
z"/>
<path fill="#F4F4F4" opacity="1.000000" stroke="none" 
	d="
M396.089783,243.111191 
	C393.165314,256.006195 382.448853,262.295959 370.436005,258.540924 
	C359.413483,255.095459 354.107025,242.598953 358.882690,231.333344 
	C363.204254,221.138855 375.907684,216.865463 386.273560,222.119095 
	C393.480133,225.771561 396.900635,232.916092 396.089783,243.111191 
M365.449707,234.466339 
	C365.294617,237.263931 364.778748,240.098938 365.063995,242.850891 
	C365.565857,247.692413 368.212585,251.201584 372.993317,252.691452 
	C379.453918,254.704788 385.799286,251.623856 387.980011,245.557205 
	C390.598816,238.271851 388.014099,229.879471 382.234253,227.322845 
	C375.461945,224.327225 367.499390,227.379242 365.449707,234.466339 
z"/>
<path fill="#EFEFEF" opacity="1.000000" stroke="none" 
	d="
M172.458267,220.455170 
	C172.881912,229.848419 173.550079,239.160980 172.692947,248.330933 
	C172.049652,255.213287 164.740051,259.642975 157.048538,259.466583 
	C149.119217,259.284668 142.737991,254.928009 142.076248,247.577972 
	C141.279037,238.723358 141.887589,229.742188 141.887589,220.536392 
	C143.867447,220.536392 145.955307,220.536392 148.798340,220.536392 
	C148.798340,228.314697 148.687073,236.074478 148.835068,243.829330 
	C148.945007,249.589996 151.712082,252.680542 156.583603,253.031479 
	C162.269104,253.441055 165.894455,250.146591 166.028839,244.007965 
	C166.196136,236.365723 166.068970,228.717026 166.068970,220.313232 
	C168.220657,220.313232 170.134125,220.313232 172.458267,220.455170 
z"/>
<path fill="#F0F0F0" opacity="1.000000" stroke="none" 
	d="
M211.099960,210.463699 
	C200.464874,209.242188 195.492798,203.972687 195.287018,193.803421 
	C195.139572,186.517181 195.258347,179.225540 195.258347,171.611710 
	C197.783890,171.611710 199.873322,171.611710 202.784500,171.611710 
	C202.784500,177.240326 202.778946,182.980270 202.787231,188.720200 
	C202.790588,191.050705 202.709137,193.389008 202.867065,195.710098 
	C203.230484,201.051407 206.399353,204.070770 211.457077,204.059387 
	C216.461899,204.048126 219.828232,200.962402 219.997742,195.635178 
	C220.220032,188.649826 220.060730,181.652527 220.084625,174.660446 
	C220.087906,173.702682 220.200989,172.745285 220.279053,171.544464 
	C222.674103,171.544464 224.770203,171.544464 226.967438,171.544464 
	C226.967438,180.710953 227.531937,189.845642 226.784576,198.871719 
	C226.211136,205.797501 220.302261,209.610382 211.099960,210.463699 
z"/>
<path fill="#F6F6F6" opacity="1.000000" stroke="none" 
	d="
M201.666992,222.065948 
	C210.295670,228.222092 209.401855,237.027740 199.808548,242.444809 
	C203.390228,247.730148 206.966125,253.006943 210.714081,258.537628 
	C205.244537,259.978119 201.485565,258.821411 199.151611,253.705627 
	C198.061264,251.315720 196.505707,249.039795 194.747940,247.083313 
	C193.307327,245.479828 191.255096,244.425842 189.473984,243.128265 
	C189.032639,243.459763 188.591309,243.791245 188.149963,244.122742 
	C188.149963,248.987762 188.149963,253.852768 188.149963,258.808838 
	C185.503036,258.808838 183.423401,258.808838 180.894150,258.808838 
	C180.894150,252.337219 180.894150,246.059723 180.894150,239.782211 
	C180.894150,233.477722 180.894150,227.173233 180.894150,219.615723 
	C187.985641,220.423386 194.642410,221.181549 201.666992,222.065948 
M197.762009,237.350250 
	C200.709625,235.045074 201.329865,231.806580 199.485123,228.984680 
	C196.802002,224.880356 192.345963,226.068497 188.411591,226.129242 
	C188.411591,230.621048 188.411591,234.647675 188.411591,239.222534 
	C191.612167,238.701630 194.347626,238.256439 197.762009,237.350250 
z"/>
<path fill="#F6F6F6" opacity="1.000000" stroke="none" 
	d="
M257.766968,199.215454 
	C260.164764,202.798615 262.362579,206.081039 264.670776,209.528305 
	C259.463257,210.913269 255.713608,209.952682 253.364639,205.032761 
	C252.228027,202.652054 250.744308,200.334076 248.976440,198.388763 
	C247.422806,196.679199 245.253830,195.528870 242.229767,193.301620 
	C242.229767,199.914764 242.229767,204.672455 242.229767,209.720886 
	C239.797684,209.720886 237.704636,209.720886 235.248962,209.720886 
	C235.248962,197.265564 235.248962,184.553177 235.248962,171.384460 
	C239.723572,171.384460 244.193314,171.146988 248.628448,171.437683 
	C256.102966,171.927597 260.028046,174.758057 261.175323,179.959366 
	C262.452759,185.750717 260.451813,189.490479 253.813629,193.642776 
	C255.066162,195.402069 256.316559,197.158401 257.766968,199.215454 
M242.107330,177.851685 
	C242.107330,181.757736 242.107330,185.663773 242.107330,189.930954 
	C244.814285,189.745148 246.961014,189.802979 249.022034,189.410645 
	C252.561386,188.736893 254.460770,186.521576 254.327881,182.790588 
	C254.196533,179.103531 251.813095,177.574875 248.593185,177.152359 
	C246.650452,176.897446 244.645721,177.114822 242.107330,177.851685 
z"/>
<path fill="#F4F4F4" opacity="1.000000" stroke="none" 
	d="
M430.674255,224.526367 
	C426.765167,229.321732 423.091736,233.830139 419.467041,238.278687 
	C424.389679,244.861984 429.367981,251.519714 434.578796,258.488403 
	C429.193329,259.910950 425.560638,258.831696 422.835327,254.289612 
	C420.795624,250.890198 418.245087,247.743729 415.576019,244.798157 
	C414.241913,243.325821 412.133545,242.555038 409.355164,240.835541 
	C409.355164,247.771835 409.355164,253.170456 409.355164,258.782654 
	C406.811798,258.782654 404.722046,258.782654 402.331299,258.782654 
	C402.331299,246.175797 402.331299,233.605728 402.331299,220.643524 
	C404.302917,220.643524 406.364105,220.643524 409.109802,220.643524 
	C409.109802,225.603180 409.109802,230.799820 409.109802,237.650101 
	C411.788940,235.967667 413.542145,235.307434 414.663757,234.073227 
	C417.228424,231.251175 419.751160,228.319153 421.799438,225.117386 
	C424.487274,220.915878 427.961395,219.360840 433.317474,220.690338 
	C432.451752,221.966568 431.680817,223.102997 430.674255,224.526367 
z"/>
<path fill="#EFEFEF" opacity="1.000000" stroke="none" 
	d="
M311.038025,184.002197 
	C312.257782,180.858292 313.497711,178.128342 314.438751,175.298981 
	C315.288513,172.744217 316.158417,171.113647 319.526611,171.130890 
	C322.933350,171.148346 324.030945,172.620728 325.081940,175.393082 
	C329.371674,186.708939 333.870880,197.945374 338.332153,209.310959 
	C333.300690,211.267899 330.173218,209.899597 329.161713,204.732300 
	C328.486969,201.285416 326.592468,200.185577 323.194183,200.609924 
	C320.736694,200.916794 318.194336,200.799957 315.713013,200.593292 
	C312.797546,200.350464 310.898865,201.215042 310.396820,204.302689 
	C309.541199,209.564835 306.394501,211.133423 301.008484,209.583252 
	C304.308746,201.195694 307.618378,192.784286 311.038025,184.002197 
M324.723816,192.295517 
	C323.096588,187.998749 321.469360,183.701996 319.644073,178.882202 
	C317.591522,184.639099 315.781342,189.716202 313.791321,195.297684 
	C317.406219,195.297684 320.387787,195.414047 323.345428,195.199677 
	C323.938141,195.156708 324.439575,193.854553 324.723816,192.295517 
z"/>
<path fill="#EFEFEF" opacity="1.000000" stroke="none" 
	d="
M254.266846,259.026917 
	C252.934647,258.168732 251.343414,257.320770 251.331238,256.450745 
	C251.166275,244.649628 251.220398,232.845444 251.220398,220.651062 
	C259.384491,220.651062 267.264801,220.651062 275.514465,220.651062 
	C275.514465,222.325958 275.514465,224.018478 275.514465,226.196411 
	C270.022217,226.196411 264.607086,226.196411 259.034271,226.196411 
	C259.034271,229.917099 259.034271,233.157883 259.034271,236.772278 
	C263.374268,236.772278 267.478638,236.772278 271.836609,236.772278 
	C271.836609,238.710800 271.836609,240.289703 271.836609,242.247131 
	C267.719086,242.247131 263.617615,242.247131 259.149902,242.247131 
	C259.149902,245.853592 259.149902,249.100739 259.149902,252.855453 
	C264.270996,252.855453 269.677948,252.855453 275.596130,252.855453 
	C275.708435,255.031937 275.796509,256.738556 275.914581,259.026855 
	C268.632263,259.026855 261.687103,259.026855 254.266846,259.026917 
z"/>
<path fill="#F3F3F3" opacity="1.000000" stroke="none" 
	d="
M239.848145,258.058594 
	C231.401031,260.627502 223.890488,260.043579 217.959991,253.405914 
	C212.653946,247.467148 211.815765,237.180328 215.625488,229.930420 
	C219.280975,222.974014 226.663986,219.004456 235.320877,220.180771 
	C239.047440,220.687134 242.574280,222.663391 246.671692,224.145432 
	C244.482147,227.465729 243.796692,230.281464 239.731171,228.060638 
	C233.549606,224.683899 227.213211,226.019257 223.573090,230.763809 
	C219.662735,235.860626 220.031296,245.269730 224.317902,249.777237 
	C228.371048,254.039261 234.496979,254.331650 240.726532,250.573517 
	C241.139664,250.324295 241.606171,250.163528 242.920013,249.562866 
	C243.748062,250.635941 244.736176,251.916458 246.132919,253.726517 
	C244.099426,255.179367 242.163239,256.562683 239.848145,258.058594 
z"/>
<path fill="#F3F3F3" opacity="1.000000" stroke="none" 
	d="
M76.106842,258.989441 
	C73.076523,257.661682 70.432144,256.394806 67.767670,255.118286 
	C69.155579,250.565887 70.884193,248.716599 74.949928,251.780167 
	C76.298897,252.796646 78.332123,253.164337 80.096222,253.314209 
	C83.326904,253.588654 86.221268,252.680191 86.854492,248.972794 
	C87.463898,245.404922 84.918289,244.007782 82.072601,243.034317 
	C80.033386,242.336777 77.972504,241.699951 75.947701,240.963440 
	C71.756058,239.438782 69.458344,236.362885 69.217484,231.967789 
	C68.967598,227.408157 70.936012,223.819244 75.010674,221.728897 
	C81.288078,218.508514 87.179436,219.645584 92.815430,223.725006 
	C91.996178,228.152252 90.075478,229.400146 86.000328,227.005768 
	C84.550888,226.154144 82.288628,225.690033 80.780075,226.194138 
	C79.007820,226.786392 76.881691,228.384750 76.377380,230.004059 
	C76.021667,231.146225 77.770477,233.586441 79.189255,234.489746 
	C81.380219,235.884750 84.121056,236.391327 86.577797,237.398773 
	C91.979904,239.614029 94.263611,243.017807 93.815971,248.003250 
	C93.323982,253.482513 89.683495,257.953064 84.421432,258.898529 
	C81.852394,259.360138 79.140182,259.024872 76.106842,258.989441 
z"/>
<path fill="#F3F3F3" opacity="1.000000" stroke="none" 
	d="
M167.472366,176.783630 
	C173.200867,169.643784 181.448715,168.985794 189.456543,174.930771 
	C188.768356,178.497589 187.600372,180.722549 183.302521,178.218750 
	C181.822983,177.356812 179.626846,176.703033 178.124130,177.159409 
	C176.211426,177.740326 173.885361,179.248596 173.250183,180.928894 
	C172.838699,182.017410 174.789261,184.634933 176.298111,185.656143 
	C178.292664,187.006088 180.928757,187.372574 183.221527,188.324554 
	C188.748306,190.619278 190.894516,193.792923 190.511459,198.867294 
	C190.110153,204.183182 186.755295,208.639816 181.802979,209.804916 
	C175.470215,211.294769 169.674393,210.123474 164.705002,205.657303 
	C165.936081,201.317001 167.864685,199.875381 171.826019,202.784271 
	C173.185669,203.782654 175.193604,204.145767 176.949554,204.301773 
	C179.962784,204.569489 182.629715,203.783859 183.460434,200.324326 
	C184.330734,196.699875 181.932648,195.220398 179.165543,194.126785 
	C177.631866,193.520645 175.978180,193.223770 174.426956,192.655457 
	C166.490738,189.747986 164.347290,185.075012 167.472366,176.783630 
z"/>
<path fill="#F1F1F1" opacity="1.000000" stroke="none" 
	d="
M287.866211,193.375916 
	C287.294434,198.984924 286.908417,204.228912 286.501923,209.750793 
	C284.383881,209.750793 282.153595,209.750793 279.009155,209.750793 
	C283.478882,194.100464 271.793304,184.088257 265.960175,171.906006 
	C273.004089,170.625839 273.040253,170.655090 276.224213,176.475616 
	C278.522125,180.676437 280.858368,184.856262 283.265839,189.205017 
	C285.639587,184.792068 288.101288,180.836014 289.949493,176.611557 
	C291.943024,172.054871 294.929230,170.197968 300.649292,171.794098 
	C296.401642,178.948105 292.226807,185.979492 287.866211,193.375916 
z"/>
<path fill="#DFDFDF" opacity="1.000000" stroke="none" 
	d="
M275.138367,367.755768 
	C275.407928,369.773743 276.293884,372.682068 275.923187,372.852203 
	C273.147736,374.125916 270.124084,374.858734 266.699219,375.907623 
	C266.699219,370.437805 266.699219,366.203339 266.699219,362.017853 
	C274.588531,360.599915 276.905914,362.125092 275.138367,367.755768 
z"/>
<path fill="#DFDFDF" opacity="1.000000" stroke="none" 
	d="
M207.741669,361.604431 
	C209.235367,364.382965 210.382568,367.044586 211.534424,369.706238 
	C212.575989,367.127625 213.597595,364.542511 214.676071,361.981354 
	C214.771957,361.753662 215.237778,361.681763 216.132370,361.242889 
	C217.274612,364.047394 218.402618,366.816956 219.538559,369.605957 
	C220.810455,366.766205 222.068069,363.958344 223.325668,361.150513 
	C223.871979,361.401337 224.418289,361.652191 224.964600,361.903046 
	C223.866714,365.622772 222.833679,369.363922 221.618484,373.044922 
	C221.363022,373.818726 220.438171,374.371521 219.821762,375.026154 
	C219.195236,374.411469 218.300827,373.907318 217.993027,373.161194 
	C217.114731,371.032135 216.475067,368.804657 215.527969,365.978729 
	C214.582520,368.582550 213.938339,370.679596 213.047043,372.665771 
	C212.642731,373.566772 211.748367,374.247864 211.076294,375.028717 
	C210.464233,374.358917 209.565521,373.789307 209.290176,373.001801 
	C208.145859,369.728851 207.137512,366.404205 206.234116,363.056732 
	C206.128815,362.666534 206.984833,362.016876 207.741669,361.604431 
z"/>
<path fill="#DFDFDF" opacity="1.000000" stroke="none" 
	d="
M386.275391,361.686951 
	C392.052307,363.649811 390.063202,366.609894 387.775085,369.591156 
	C388.818665,371.261688 389.844910,372.904480 390.871155,374.547272 
	C390.524719,374.894104 390.178314,375.240967 389.831909,375.587830 
	C387.952942,373.761566 386.074005,371.935303 383.771698,369.697540 
	C383.439545,371.625916 383.161774,373.238739 382.875580,374.900269 
	C380.298798,373.658325 379.848419,370.109192 381.111847,361.606018 
	C382.671143,361.606018 384.279694,361.606018 386.275391,361.686951 
z"/>
<path fill="#D5D5D5" opacity="1.000000" stroke="none" 
	d="
M168.600037,364.642822 
	C168.593124,368.309601 168.593124,371.554321 168.593124,374.799042 
	C168.161926,375.038818 167.730713,375.278595 167.299515,375.518372 
	C164.956512,372.891510 162.613510,370.264618 159.746979,367.050751 
	C159.455460,370.290649 159.239853,372.686798 159.024246,375.082977 
	C158.544510,375.069122 158.064758,375.055267 157.585007,375.041412 
	C157.585007,370.679535 157.585007,366.317657 157.585007,360.478821 
	C160.553528,363.782135 163.002136,366.506897 165.856842,369.683563 
	C165.994690,366.641205 166.108444,364.131042 166.222183,361.620880 
	C166.651443,361.528809 167.080704,361.436737 167.509949,361.344666 
	C167.875610,362.303375 168.241287,363.262054 168.600037,364.642822 
z"/>
<path fill="#E8E8E8" opacity="1.000000" stroke="none" 
	d="
M121.205093,374.966248 
	C119.490921,373.302673 118.153831,371.697205 116.352943,369.534851 
	C115.732193,371.769226 115.251747,373.498596 114.771294,375.227966 
	C114.328087,375.159454 113.884888,375.090912 113.441681,375.022369 
	C113.441681,370.760406 113.441681,366.498444 113.441681,360.985260 
	C116.152016,361.780365 119.199799,362.140656 121.499191,363.644928 
	C122.280975,364.156342 121.176796,367.550659 120.844925,370.394226 
	C120.988106,371.293457 121.285141,373.158905 121.205093,374.966248 
z"/>
<path fill="#E1E1E1" opacity="1.000000" stroke="none" 
	d="
M333.492737,370.199463 
	C332.660522,371.887482 332.229614,373.556885 331.798676,375.226318 
	C331.335663,375.155426 330.872620,375.084534 330.409607,375.013641 
	C330.409607,370.735260 330.409607,366.456848 330.409607,360.971619 
	C333.149902,361.783081 336.205688,362.153656 338.512970,363.666107 
	C339.301697,364.183197 338.212524,367.564972 336.981995,369.599152 
	C338.019897,371.246918 339.057800,372.894684 340.095703,374.542450 
	C339.738037,374.882660 339.380341,375.222839 339.022675,375.563049 
	C337.313110,373.769012 335.603546,371.974945 333.492737,370.199463 
z"/>
<path fill="#E1E1E1" opacity="1.000000" stroke="none" 
	d="
M140.149872,364.371735 
	C143.042831,361.096191 146.537857,360.088470 149.545090,362.584045 
	C151.336304,364.070557 152.604431,367.313263 152.505905,369.700317 
	C152.337082,373.790497 148.188736,375.990509 144.070251,375.007751 
	C139.793335,373.987213 138.245468,370.114258 140.149872,364.371735 
M145.528580,363.813690 
	C141.868515,364.330719 141.360229,367.036377 142.166595,369.724548 
	C142.563232,371.046814 144.618561,372.707428 145.908371,372.694733 
	C147.243851,372.681702 149.320526,371.060425 149.726944,369.731049 
	C150.546677,367.049774 150.028625,364.341522 145.528580,363.813690 
z"/>
<path fill="#D5D5D5" opacity="1.000000" stroke="none" 
	d="
M87.552536,374.944611 
	C86.530312,370.693726 85.942169,366.350372 85.290085,361.534882 
	C89.705620,361.700989 94.034180,359.941772 95.316017,364.912354 
	C96.504372,369.520477 92.778770,370.321136 89.248215,370.449341 
	C88.775154,372.100281 88.380882,373.476227 87.552536,374.944611 
z"/>
<path fill="#E1E1E1" opacity="1.000000" stroke="none" 
	d="
M369.627991,374.973083 
	C365.714172,370.240601 362.113007,370.794281 358.445374,376.383820 
	C358.255402,375.812622 358.065399,375.241425 357.875427,374.670258 
	C359.380341,370.778992 360.758881,366.828430 362.527100,363.060760 
	C362.790863,362.498779 365.860931,362.424927 365.985931,362.752869 
	C367.506622,366.742737 368.718781,370.850159 369.627991,374.973083 
z"/>
<path fill="#E1E1E1" opacity="1.000000" stroke="none" 
	d="
M403.122742,372.528625 
	C400.062775,372.926727 397.252167,373.641724 393.986633,374.472473 
	C395.396545,370.798187 396.734314,366.841644 398.436188,363.048492 
	C399.501373,360.674377 401.174500,360.636597 402.258759,363.147064 
	C403.878235,366.896759 405.307312,370.728699 405.986450,375.267822 
	C405.114990,374.460388 404.243530,373.652954 403.122742,372.528625 
z"/>
<path fill="#E1E1E1" opacity="1.000000" stroke="none" 
	d="
M180.769470,363.466858 
	C182.265915,367.337463 183.624100,370.867676 185.396439,375.474304 
	C182.700638,374.001312 180.781982,372.117279 178.889633,372.143341 
	C176.808762,372.171967 174.752106,373.958160 171.856537,375.387482 
	C173.607925,370.888031 174.996964,367.140137 176.526657,363.450562 
	C177.607971,360.842407 179.046783,360.494751 180.769470,363.466858 
z"/>
<path fill="#DBDBDB" opacity="1.000000" stroke="none" 
	d="
M237.298279,362.050659 
	C238.661057,363.134491 239.827438,364.574921 241.136780,366.191895 
	C242.459885,364.937592 244.547165,362.958862 246.634430,360.980103 
	C247.017105,361.324036 247.399765,361.667969 247.782440,362.011932 
	C246.396225,363.878662 245.010010,365.745361 243.533585,367.733582 
	C245.097580,370.007355 246.649551,372.263672 248.201508,374.519958 
	C247.851257,374.877899 247.501007,375.235809 247.150757,375.593750 
	C244.980072,373.548187 242.809372,371.502625 240.543503,369.367371 
	C239.962234,371.416687 239.414291,373.348572 238.866348,375.280457 
	C238.278198,375.172943 237.690048,375.065430 237.101898,374.957947 
	C237.101898,370.774384 237.101898,366.590851 237.298279,362.050659 
z"/>
<path fill="#DBDBDB" opacity="1.000000" stroke="none" 
	d="
M325.111603,367.032349 
	C324.112549,369.878448 323.604126,372.794586 321.890869,374.501282 
	C320.962982,375.425629 316.518677,374.857513 316.177124,373.981506 
	C314.671844,370.120636 314.082214,365.902771 313.160889,361.814209 
	C313.806427,361.611359 314.451996,361.408478 315.097565,361.205597 
	C315.609161,362.002350 316.452332,362.755676 316.563538,363.604858 
	C316.798157,365.396027 316.267639,367.353394 316.774689,369.022797 
	C317.208496,370.451019 318.651611,371.572693 319.648285,372.829956 
	C320.551178,371.647217 321.889282,370.581818 322.247894,369.252289 
	C322.706421,367.552063 322.242859,365.624268 322.440979,363.823608 
	C322.537872,362.942932 323.232574,362.128021 323.656677,361.283325 
	C324.137878,361.369019 324.619110,361.454712 325.100311,361.540375 
	C325.100311,363.226440 325.100311,364.912476 325.111603,367.032349 
z"/>
<path fill="#E1E1E1" opacity="1.000000" stroke="none" 
	d="
M103.063400,361.453979 
	C105.060287,361.561188 106.611168,361.667175 108.162041,361.773193 
	C108.212769,362.215057 108.263496,362.656921 108.314224,363.098785 
	C107.272163,363.335388 106.195770,363.476776 105.198044,363.836426 
	C104.268227,364.171570 103.422081,364.738861 102.539116,365.204010 
	C103.422432,365.836487 104.275749,366.517975 105.199982,367.083588 
	C105.780289,367.438721 106.467041,367.619934 107.375969,367.988739 
	C105.293892,369.231018 103.620811,370.229248 101.947731,371.227509 
	C102.150864,371.681854 102.354004,372.136200 102.557137,372.590546 
	C104.498459,372.862854 106.439781,373.135193 108.381104,373.407532 
	C108.364433,373.782379 108.347771,374.157257 108.331100,374.532104 
	C105.716057,374.532104 103.101013,374.532104 99.831062,374.532104 
	C99.831062,371.229614 99.664368,367.486023 99.957909,363.778870 
	C100.024445,362.938568 101.688599,362.224762 103.063400,361.453979 
z"/>
<path fill="#DBDBDB" opacity="1.000000" stroke="none" 
	d="
M303.300842,374.976410 
	C302.169983,374.273224 301.445007,373.650970 299.750366,372.196472 
	C303.074463,372.196472 305.033997,372.196472 307.434326,372.196472 
	C306.016144,368.207458 297.949921,368.851135 302.043549,363.013428 
	C303.855988,360.428772 306.735809,360.596161 309.805725,363.586456 
	C307.376740,363.861755 305.677551,364.054352 303.641479,364.285095 
	C304.610809,368.059479 312.269562,367.303467 309.061371,372.711700 
	C308.253662,374.073242 305.542908,374.305878 303.300842,374.976410 
z"/>
<path fill="#DFDFDF" opacity="1.000000" stroke="none" 
	d="
M134.131119,362.069885 
	C132.982635,363.107513 131.465805,363.988220 129.594330,365.074860 
	C130.979156,367.866333 139.467834,368.487366 133.617218,374.187164 
	C131.603790,376.148682 128.561432,375.823914 126.219269,372.550293 
	C128.805954,372.434052 130.846817,372.342346 133.744034,372.212128 
	C131.349350,368.453827 124.804733,368.914368 127.458374,363.733887 
	C128.141464,362.400360 131.586517,362.481628 134.131119,362.069885 
z"/>
<path fill="#D5D5D5" opacity="1.000000" stroke="none" 
	d="
M289.559937,365.884277 
	C288.307922,369.029938 287.284424,371.893372 285.966583,375.580261 
	C284.015442,370.817017 282.190552,366.361908 280.365662,361.906830 
	C280.664337,361.609314 280.963043,361.311798 281.261749,361.014282 
	C282.771698,362.896881 284.281647,364.779480 285.787048,366.666992 
	C287.295990,364.791107 288.809448,362.910278 290.322906,361.029449 
	C290.715210,361.292664 291.107513,361.555878 291.499786,361.819092 
	C290.929321,363.080109 290.358856,364.341095 289.559937,365.884277 
z"/>
<path fill="#DBDBDB" opacity="1.000000" stroke="none" 
	d="
M347.969208,371.375549 
	C346.528351,367.954895 345.094635,364.945343 343.660950,361.935791 
	C344.053772,361.645355 344.446625,361.354919 344.839447,361.064514 
	C346.322418,362.921509 347.805389,364.778503 349.301758,366.652252 
	C350.763214,364.862946 352.298859,362.982819 353.834534,361.102661 
	C354.013550,361.316620 354.192535,361.530609 354.371552,361.744568 
	C353.156982,365.848053 351.977753,369.962799 350.676636,374.038666 
	C350.536407,374.477966 349.688477,374.691376 349.168823,375.009583 
	C348.771332,373.935272 348.373871,372.860992 347.969208,371.375549 
z"/>
<path fill="#DFDFDF" opacity="1.000000" stroke="none" 
	d="
M191.824326,368.095978 
	C191.824799,369.838104 191.824799,371.131012 191.824799,372.469086 
	C193.819489,372.827881 195.451431,373.121429 197.083359,373.414978 
	C197.065598,373.846527 197.047836,374.278107 197.030060,374.709656 
	C194.490311,374.846619 191.950562,374.983551 189.346161,375.123962 
	C189.346161,370.289429 189.346161,365.945953 189.346161,361.602509 
	C189.942596,361.525269 190.539047,361.448029 191.135483,361.370789 
	C191.364944,363.462799 191.594391,365.554779 191.824326,368.095978 
z"/>
<path fill="#DBDBDB" opacity="1.000000" stroke="none" 
	d="
M231.474075,362.110901 
	C232.212662,373.643585 232.212662,373.643585 229.063705,375.182220 
	C229.063705,370.888702 229.010025,366.841095 229.156143,362.800751 
	C229.169128,362.441406 230.481812,362.129028 231.474075,362.110901 
z"/>
<path fill="#F3F3F3" opacity="1.000000" stroke="none" 
	d="
M412.825317,375.043182 
	C411.610504,374.998352 410.817078,374.895844 408.385101,374.581665 
	C416.811768,372.215149 411.888519,365.359222 414.840576,361.216614 
	C417.450500,366.436523 416.678345,372.210968 412.825317,375.043182 
z"/>
<path fill="#F6F6F6" opacity="1.000000" stroke="none" 
	d="
M253.924805,374.945862 
	C253.132584,370.506836 252.821091,366.074219 252.509598,361.641602 
	C253.423050,361.638947 254.336517,361.636261 255.249985,361.633606 
	C254.968506,366.073151 254.687012,370.512726 253.924805,374.945862 
z"/>
<path fill="#080808" opacity="1.000000" stroke="none" 
	d="
M302.954712,249.614685 
	C299.413574,255.321548 294.127686,252.485931 289.332336,253.398987 
	C289.332336,249.617874 289.332336,246.187637 289.332336,242.734055 
	C298.921631,240.576569 303.042419,242.501801 302.954712,249.614685 
z"/>
<path fill="#080808" opacity="1.000000" stroke="none" 
	d="
M294.747375,226.002045 
	C299.342072,226.047348 302.480072,227.259338 302.044952,232.257828 
	C301.688904,236.347488 299.072937,237.311600 289.050751,236.916153 
	C289.050751,235.204025 289.050751,233.457474 289.050751,231.710938 
	C289.050751,229.928574 289.050751,228.146210 289.050751,226.001312 
	C291.077454,226.001312 292.689270,226.001312 294.747375,226.002045 
z"/>
<path fill="#060606" opacity="1.000000" stroke="none" 
	d="
M117.693115,226.195343 
	C126.003197,228.229446 129.555771,233.439102 128.582230,241.625351 
	C127.715683,248.911957 123.777618,252.900345 117.232079,253.120529 
	C110.169884,253.358124 105.690369,249.514282 104.730492,242.393005 
	C103.596962,233.983337 106.923744,228.153702 113.845383,226.526932 
	C114.963409,226.264175 116.144638,226.270401 117.693115,226.195343 
z"/>
<path fill="#060606" opacity="1.000000" stroke="none" 
	d="
M322.102081,242.476257 
	C321.826904,231.194717 327.023651,225.141983 335.609650,226.273956 
	C342.362091,227.164215 346.088776,231.919037 346.112274,239.674164 
	C346.134583,247.030731 342.656921,251.932724 336.679291,252.970581 
	C329.337402,254.245285 324.629059,250.980225 322.102081,242.476257 
z"/>
<path fill="#060606" opacity="1.000000" stroke="none" 
	d="
M365.599915,234.084961 
	C367.499390,227.379242 375.461945,224.327225 382.234253,227.322845 
	C388.014099,229.879471 390.598816,238.271851 387.980011,245.557205 
	C385.799286,251.623856 379.453918,254.704788 372.993317,252.691452 
	C368.212585,251.201584 365.565857,247.692413 365.063995,242.850891 
	C364.778748,240.098938 365.294617,237.263931 365.599915,234.084961 
z"/>
<path fill="#0B0B0B" opacity="1.000000" stroke="none" 
	d="
M197.422546,237.580750 
	C194.347626,238.256439 191.612167,238.701630 188.411591,239.222534 
	C188.411591,234.647675 188.411591,230.621048 188.411591,226.129242 
	C192.345963,226.068497 196.802002,224.880356 199.485123,228.984680 
	C201.329865,231.806580 200.709625,235.045074 197.422546,237.580750 
z"/>
<path fill="#0B0B0B" opacity="1.000000" stroke="none" 
	d="
M242.388092,177.485840 
	C244.645721,177.114822 246.650452,176.897446 248.593185,177.152359 
	C251.813095,177.574875 254.196533,179.103531 254.327881,182.790588 
	C254.460770,186.521576 252.561386,188.736893 249.022034,189.410645 
	C246.961014,189.802979 244.814285,189.745148 242.107330,189.930954 
	C242.107330,185.663773 242.107330,181.757736 242.388092,177.485840 
z"/>
<path fill="#0B0B0B" opacity="1.000000" stroke="none" 
	d="
M324.853455,192.714264 
	C324.439575,193.854553 323.938141,195.156708 323.345428,195.199677 
	C320.387787,195.414047 317.406219,195.297684 313.791321,195.297684 
	C315.781342,189.716202 317.591522,184.639099 319.644073,178.882202 
	C321.469360,183.701996 323.096588,187.998749 324.853455,192.714264 
z"/>
<path fill="#0B0B0B" opacity="1.000000" stroke="none" 
	d="
M145.946320,363.825012 
	C150.028625,364.341522 150.546677,367.049774 149.726944,369.731049 
	C149.320526,371.060425 147.243851,372.681702 145.908371,372.694733 
	C144.618561,372.707428 142.563232,371.046814 142.166595,369.724548 
	C141.360229,367.036377 141.868515,364.330719 145.946320,363.825012 
z"/>
</svg>